<?xml version="1.0" standalone="no"?>
<!DOCTYPE svg PUBLIC "-//W3C//DTD SVG 20010904//EN"
 "http://www.w3.org/TR/2001/REC-SVG-20010904/DTD/svg10.dtd">
<svg version="1.0" xmlns="http://www.w3.org/2000/svg"
 width="225.000000pt" height="225.000000pt" viewBox="0 0 225.000000 225.000000"
 preserveAspectRatio="xMidYMid meet">

<g transform="translate(0.000000,225.000000) scale(0.100000,-0.100000)"
fill="#ffffff" stroke="none">
<path d="M900 2221 c-225 -50 -409 -149 -566 -306 -141 -141 -236 -308 -292
-514 -23 -87 -26 -113 -26 -276 1 -165 3 -189 28 -280 141 -518 604 -857 1135
-832 180 9 304 42 466 124 308 156 534 473 585 821 19 127 8 335 -23 454 -101
384 -409 693 -792 794 -137 36 -386 43 -515 15z m449 -101 c46 -11 89 -24 96
-28 11 -5 -25 -94 -147 -370 -89 -199 -166 -362 -172 -362 -14 0 -330 715
-322 728 7 11 112 38 201 52 84 13 245 3 344 -20z m-518 -531 l187 -414 104
-3 c76 -2 108 1 115 10 6 7 92 196 193 421 101 224 187 407 192 407 41 0 260
-192 324 -285 l35 -52 -263 -527 c-145 -289 -267 -525 -272 -523 -4 1 -53 104
-107 227 -54 123 -102 227 -107 232 -5 5 -57 7 -116 6 l-108 -3 -97 -229 c-54
-127 -102 -231 -107 -233 -6 -2 -128 234 -271 524 l-262 526 32 46 c75 106
297 299 332 288 5 -2 94 -190 196 -418z m-350 -714 c165 -333 307 -609 315
-612 9 -3 22 1 29 8 8 8 76 153 152 324 78 174 145 310 152 310 7 0 74 -137
153 -315 77 -173 145 -318 152 -322 6 -4 17 -8 24 -8 7 0 149 275 317 611 339
677 306 630 341 499 53 -204 34 -433 -56 -641 -105 -245 -314 -447 -567 -549
-133 -53 -255 -74 -408 -67 -154 6 -258 33 -400 102 -444 216 -671 725 -533
1193 11 39 23 72 25 72 3 0 139 -272 304 -605z"/>
</g>
</svg>
